# Blender v2.79 (sub 0) OBJ File: ''
# www.blender.org
mtllib LampPost.mtl
o Cylinder
v 0.000000 1.786904 -0.426509
v 0.000000 2.002741 -0.335997
v 0.335997 2.002741 -0.167999
v 0.426509 1.786904 -0.213255
v 0.335997 2.002741 0.167999
v 0.426509 1.786904 0.213255
v 0.000000 2.002741 0.335997
v 0.000000 1.786904 0.426509
v -0.335997 2.002741 0.167999
v -0.426509 1.786904 0.213255
v -0.335997 2.002741 -0.167999
v -0.335997 10.221249 0.168001
v -0.335997 10.221249 -0.167997
v -0.426509 1.786904 -0.213255
v 0.000000 0.000000 -0.790555
v 0.000000 -0.000000 0.790555
v -0.790555 -0.000000 0.395278
v -0.790555 0.000000 -0.395278
v -0.750000 1.232903 -0.375000
v -0.750000 1.543693 -0.375000
v 0.000000 1.543693 -0.750000
v 0.000000 1.232903 -0.750000
v -0.750000 1.232903 0.375000
v -0.750000 1.543693 0.375000
v 0.000000 1.232903 0.750000
v 0.000000 1.543693 0.750000
v 0.750000 1.232903 0.375000
v 0.750000 1.543693 0.375000
v 0.750000 1.232903 -0.375000
v 0.750000 1.543693 -0.375000
v 0.000000 0.106865 -0.790555
v 0.790555 0.106865 -0.395278
v 0.790555 0.000000 -0.395278
v 0.790555 0.106865 0.395278
v 0.790555 -0.000000 0.395278
v 0.000000 0.106865 0.790555
v -0.790555 0.106865 0.395278
v -0.790555 0.106865 -0.395278
v 0.000000 0.104124 -0.750000
v 0.750000 0.104124 -0.375000
v 0.750000 0.104124 0.375000
v 0.000000 0.104124 0.750000
v -0.750000 0.104124 0.375000
v -0.750000 0.104124 -0.375000
v -0.541875 10.623983 -0.167997
v -0.541875 10.623983 0.168001
v -0.586116 10.710526 0.168001
v -0.586116 10.710526 -0.167997
v 0.000000 10.221249 -0.335995
v 0.335997 10.221249 -0.167997
v 0.335997 10.221249 0.168001
v 0.000000 10.221249 0.335999
v -2.361054 12.073833 0.296420
v -2.361054 12.073833 -0.296416
v -0.470528 11.073562 -0.296416
v -0.470528 11.073562 0.296420
v -0.353103 10.868441 0.335999
v -0.164330 11.112898 0.168001
v -0.271844 11.304502 0.168001
v -0.428980 11.007514 0.335999
v -0.164330 11.112898 -0.167997
v -0.353103 10.868441 -0.335995
v -0.428980 11.007514 -0.335995
v -0.271844 11.304502 -0.167997
v -2.406878 12.434143 -0.167996
v -2.564013 12.137155 -0.335995
v -2.564013 12.137155 0.335999
v -2.406878 12.434143 0.168001
v -2.245466 12.348741 0.168001
v -2.245466 12.348741 -0.167996
v -2.402602 12.051752 -0.335995
v -2.402602 12.051752 0.335999
v -2.509572 11.849578 -0.335995
v -2.670984 11.934980 -0.335995
v -2.670984 11.934980 0.335999
v -2.509572 11.849578 0.335999
v 0.000000 1.225044 -0.672555
v 0.672554 1.225044 -0.336277
v 0.672554 1.225044 0.336277
v 0.000000 1.225044 0.672555
v -0.672554 1.225044 0.336277
v -0.672554 1.225044 -0.336277
v -0.672554 1.088540 -0.336277
v 0.000000 1.088540 -0.672555
v -0.672554 1.088540 0.336277
v 0.000000 1.088540 0.672555
v 0.672554 1.088540 0.336277
v 0.672554 1.088540 -0.336277
v 0.000000 1.080681 -0.750000
v 0.750000 1.080681 -0.375000
v 0.750000 1.080681 0.375000
v 0.000000 1.080681 0.750000
v -0.750000 1.080681 0.375000
v -0.750000 1.080681 -0.375000
v -0.750000 0.503761 -0.375000
v 0.000000 0.503761 -0.750000
v -0.750000 0.503761 0.375000
v 0.000000 0.503761 0.750000
v 0.750000 0.503761 0.375000
v 0.750000 0.503761 -0.375000
v 0.000000 0.354545 -0.750000
v 0.000000 0.362469 -0.670337
v 0.670337 0.362469 -0.335168
v 0.750000 0.354545 -0.375000
v 0.670337 0.362469 0.335168
v 0.750000 0.354545 0.375000
v 0.000000 0.362469 0.670337
v 0.000000 0.354545 0.750000
v -0.670337 0.362469 0.335168
v -0.750000 0.354545 0.375000
v -0.670337 0.362469 -0.335168
v -0.750000 0.354545 -0.375000
v 0.000000 0.495836 -0.670337
v 0.670337 0.495836 -0.335168
v 0.670337 0.495836 0.335168
v 0.000000 0.495836 0.670337
v -0.670337 0.495836 0.335168
v -0.670337 0.495836 -0.335168
v -0.183844 11.075540 0.146924
v -0.183302 11.075540 -0.147473
v -0.514725 10.646353 0.147477
v -0.349555 10.860947 0.294399
v -0.349014 10.860947 -0.294949
v -0.514725 10.646353 -0.147473
v -0.480464 10.579331 -0.147473
v -0.480464 10.579331 0.147477
v -0.290252 10.753243 0.294953
v -0.100581 10.927155 0.146924
v -0.100040 10.927155 -0.147473
v -0.290252 10.753243 -0.294949
v -0.070022 10.943864 0.167447
v -0.069481 10.943864 -0.167997
v -0.502846 10.547635 0.168001
v -0.286163 10.745749 0.335999
v -0.286163 10.745749 -0.335995
v -0.502846 10.547635 -0.167997
v -0.411309 10.368572 -0.167997
v -0.411309 10.368572 0.168001
v -0.129168 10.457997 0.335999
v 0.152431 10.547422 0.167447
v 0.152973 10.547422 -0.167997
v -0.129168 10.457997 -0.335995
v 0.231851 10.406852 -0.167997
v 0.231851 10.406852 0.168001
v -0.073500 10.355967 0.335999
v -0.378852 10.305080 0.168001
v -0.378852 10.305080 -0.167997
v -0.073500 10.355967 -0.335995
v 0.182976 10.406871 -0.143353
v 0.182976 10.406871 0.143357
v -0.077583 10.363450 0.286712
v -0.338143 10.320028 0.143357
v -0.338143 10.320028 -0.143353
v -0.077583 10.363450 -0.286708
v 0.115669 10.526821 -0.143353
v 0.115127 10.526821 0.142804
v -0.125085 10.450514 0.286712
v -0.365839 10.374207 0.143357
v -0.365839 10.374207 -0.143353
v -0.125085 10.450514 -0.286708
vt 0.789283 0.372734
vt 0.786502 0.340621
vt 0.848604 0.331199
vt 0.859674 0.362146
vt 0.903249 0.301954
vt 0.926264 0.327267
vt 0.503735 0.270691
vt 0.534604 0.246304
vt 0.591791 0.291337
vt 0.574233 0.323265
vt 0.655760 0.320433
vt 0.646002 0.353678
vt 0.156923 0.004173
vt 0.208490 0.004173
vt 0.208491 0.950180
vt 0.156924 0.950180
vt 0.721445 0.336593
vt 0.718007 0.369685
vt 0.512712 0.506885
vt 0.385654 0.582475
vt 0.400075 0.497268
vt 0.456849 0.473684
vt 0.712914 0.450877
vt 0.717133 0.421681
vt 0.797247 0.421875
vt 0.797913 0.450936
vt 0.626776 0.436500
vt 0.635776 0.407377
vt 0.539342 0.409871
vt 0.551956 0.379863
vt 0.421536 0.376475
vt 0.435991 0.326819
vt 0.883045 0.435685
vt 0.877369 0.406674
vt 0.979370 0.367435
vt 0.993802 0.410100
vt 0.520640 0.501320
vt 0.545868 0.582236
vt 0.534476 0.580489
vt 0.478546 0.765404
vt 0.451428 0.757184
vt 0.426171 0.764448
vt 0.372750 0.583870
vt 0.391949 0.491221
vt 0.457723 0.464636
vt 0.523940 0.498973
vt 0.550350 0.582541
vt 0.488000 0.763424
vt 0.414089 0.761275
vt 0.366455 0.584459
vt 0.388538 0.488345
vt 0.458190 0.460755
vt 0.974418 0.150599
vt 0.977055 0.190768
vt 0.966977 0.190041
vt 0.964029 0.152050
vt 0.053788 0.004173
vt 0.105355 0.004173
vt 0.105356 0.950180
vt 0.053788 0.950180
vt 0.260058 0.004173
vt 0.311625 0.004173
vt 0.311627 0.950180
vt 0.260059 0.950180
vt 0.002220 0.004173
vt 0.002220 0.950180
vt 0.434788 0.294591
vt 0.340192 0.293972
vt 0.342076 0.006605
vt 0.436671 0.007225
vt 0.960719 0.226790
vt 0.965923 0.281283
vt 0.933713 0.292042
vt 0.935915 0.226949
vt 0.960722 0.074923
vt 0.960436 0.117360
vt 0.940000 0.117015
vt 0.937057 0.068429
vt 0.984550 0.023159
vt 0.951619 0.009932
vt 0.679876 0.101177
vt 0.695270 0.118431
vt 0.673558 0.144064
vt 0.545705 0.112082
vt 0.570151 0.028705
vt 0.688583 0.083243
vt 0.713024 0.115826
vt 0.688786 0.180380
vt 0.546810 0.207627
vt 0.700741 0.128082
vt 0.696345 0.127348
vt 0.687039 0.138487
vt 0.690565 0.142795
vt 0.798847 0.460040
vt 0.885279 0.445564
vt 0.989551 0.423938
vt 0.424992 0.389386
vt 0.536827 0.419187
vt 0.624782 0.445734
vt 0.712310 0.460039
vt 0.619871 0.983847
vt 0.619871 0.968135
vt 0.723092 0.968135
vt 0.723092 0.983847
vt 0.516650 0.983847
vt 0.516650 0.968135
vt 0.413429 0.983847
vt 0.413429 0.968135
vt 0.310208 0.983847
vt 0.310208 0.968135
vt 0.826314 0.983847
vt 0.826314 0.968135
vt 0.929535 0.968135
vt 0.929535 0.983847
vt 0.754787 0.872223
vt 0.754665 0.862547
vt 0.846490 0.862364
vt 0.847528 0.871741
vt 0.949433 0.843358
vt 0.957263 0.852569
vt 0.353341 0.855942
vt 0.362470 0.843357
vt 0.475962 0.857514
vt 0.475562 0.868489
vt 0.570705 0.858807
vt 0.570778 0.868649
vt 0.662703 0.860588
vt 0.662716 0.870273
vt 0.656121 0.927081
vt 0.748046 0.928792
vt 0.564125 0.925192
vt 0.471521 0.925880
vt 0.362033 0.945380
vt 0.843307 0.929190
vt 0.965701 0.942184
vt 0.543311 0.481979
vt 0.552714 0.473965
vt 0.595401 0.581698
vt 0.582281 0.583174
vt 0.575474 0.763036
vt 0.555558 0.771752
vt 0.363897 0.771752
vt 0.340428 0.762184
vt 0.319973 0.584407
vt 0.336129 0.584759
vt 0.357358 0.462830
vt 0.367722 0.471912
vt 0.459483 0.423465
vt 0.458698 0.435905
vt 0.721730 0.999733
vt 0.721730 0.984382
vt 0.824611 0.984381
vt 0.824611 0.999733
vt 0.927492 0.984381
vt 0.927492 0.999733
vt 0.310208 0.999733
vt 0.310208 0.984382
vt 0.413088 0.984382
vt 0.413088 0.999733
vt 0.515968 0.984382
vt 0.515968 0.999733
vt 0.618849 0.984382
vt 0.618849 0.999733
vt 0.748109 0.938936
vt 0.842866 0.940502
vt 0.956244 0.955124
vt 0.370118 0.954822
vt 0.472619 0.935518
vt 0.564271 0.935150
vt 0.656141 0.937057
vt 0.988573 0.029580
vt 0.966219 0.075606
vt 0.981845 0.190612
vt 0.967298 0.227371
vt 0.966288 0.116638
vt 0.978387 0.150583
vt 0.972579 0.277730
vt 0.832705 0.749817
vt 0.774286 0.749513
vt 0.774346 0.737951
vt 0.832766 0.738256
vt 0.723787 0.743586
vt 0.673331 0.737275
vt 0.674536 0.711037
vt 0.724461 0.724639
vt 0.933822 0.739021
vt 0.883264 0.744418
vt 0.882916 0.725511
vt 0.933066 0.712766
vt 0.992107 0.737292
vt 0.991351 0.711037
vt 0.981300 0.487241
vt 0.929545 0.501940
vt 0.929455 0.496991
vt 0.976670 0.483480
vt 0.805381 0.505237
vt 0.766794 0.502291
vt 0.768028 0.496328
vt 0.806453 0.500717
vt 0.890217 0.506607
vt 0.851542 0.506649
vt 0.850825 0.501576
vt 0.890044 0.500672
vt 0.717762 0.483092
vt 0.722241 0.477875
vt 0.852117 0.530385
vt 0.804749 0.529177
vt 0.761338 0.535952
vt 0.715075 0.561222
vt 0.929714 0.548961
vt 0.892275 0.537877
vt 0.985979 0.561026
vt 0.983832 0.607283
vt 0.969412 0.659058
vt 0.945503 0.648985
vt 0.958273 0.600164
vt 0.823469 0.679227
vt 0.778033 0.652514
vt 0.795763 0.646158
vt 0.830030 0.668687
vt 0.923019 0.689154
vt 0.871233 0.690254
vt 0.869756 0.679294
vt 0.910511 0.675210
vt 0.746325 0.602298
vt 0.775565 0.600164
vt 0.940045 0.645091
vt 0.950360 0.602411
vt 0.801767 0.641778
vt 0.832693 0.664296
vt 0.869647 0.673393
vt 0.907460 0.668579
vt 0.783718 0.600655
vt 0.665364 0.464414
vt 0.672200 0.532945
vt 0.646577 0.535501
vt 0.639693 0.467108
vt 0.643098 0.726621
vt 0.667858 0.786387
vt 0.649336 0.787152
vt 0.631788 0.727358
vt 0.655408 0.595420
vt 0.638618 0.657896
vt 0.627308 0.658633
vt 0.636943 0.597067
vt 0.692621 0.846152
vt 0.666821 0.846946
vt 0.980160 0.566426
vt 0.929176 0.554949
vt 0.805703 0.535897
vt 0.763403 0.543375
vt 0.890954 0.545072
vt 0.850869 0.536319
vt 0.721225 0.566427
vt 0.694463 0.175479
vt 0.926966 0.219125
vt 0.932308 0.122320
vt 0.715333 0.121470
vn 0.4187 0.3512 -0.8375
vn 0.9222 0.3867 0.0000
vn 0.4187 0.3512 0.8375
vn -0.4187 0.3512 0.8375
vn -1.0000 0.0000 0.0000
vn -0.9222 0.3867 0.0000
vn -0.4187 0.3512 -0.8375
vn 0.0000 -1.0000 -0.0000
vn -0.4472 0.0000 -0.8944
vn -0.4472 -0.0000 0.8944
vn 0.4472 -0.0000 0.8944
vn 1.0000 0.0000 0.0000
vn 0.4472 0.0000 -0.8944
vn -0.0337 0.9972 0.0674
vn -0.0674 0.9977 0.0000
vn -0.0337 0.9972 -0.0674
vn 0.0337 0.9972 -0.0674
vn 0.0674 0.9977 0.0000
vn 0.0337 0.9972 0.0674
vn -0.8904 -0.4552 0.0000
vn -0.4677 -0.8839 0.0000
vn 0.4469 0.2479 0.8595
vn 0.4469 0.2479 -0.8595
vn -0.4543 -0.2419 -0.8574
vn -0.4543 -0.2419 0.8574
vn 0.8721 0.4893 0.0000
vn -0.8839 0.4677 0.0000
vn 0.4677 0.8839 0.0000
vn 0.2091 0.3953 -0.8944
vn 0.2091 0.3953 0.8944
vn 0.2092 0.3953 -0.8944
vn 0.0000 0.0000 -1.0000
vn 0.8839 -0.4677 0.0000
vn 0.0000 -0.0000 1.0000
vn -0.2878 0.7655 -0.5755
vn -0.6009 0.7993 0.0000
vn -0.2878 0.7655 0.5755
vn 0.2878 0.7655 0.5755
vn 0.6009 0.7993 0.0000
vn 0.2878 0.7655 -0.5755
vn 0.0504 -0.9936 -0.1008
vn 0.1010 -0.9949 -0.0000
vn 0.0504 -0.9936 0.1008
vn -0.0504 -0.9936 0.1008
vn -0.1010 -0.9949 -0.0000
vn -0.0504 -0.9936 -0.1008
vn 0.0504 0.9936 -0.1008
vn 0.1010 0.9949 0.0000
vn 0.0504 0.9936 0.1008
vn -0.0504 0.9936 0.1008
vn -0.1010 0.9949 0.0000
vn -0.0504 0.9936 -0.1008
vn 0.0494 0.9939 -0.0989
vn 0.0990 0.9951 0.0000
vn 0.0494 0.9939 0.0989
vn -0.0494 0.9939 0.0989
vn -0.0990 0.9951 0.0000
vn -0.0494 0.9939 -0.0989
vn 0.0494 -0.9939 -0.0989
vn 0.0990 -0.9951 -0.0000
vn 0.0494 -0.9939 0.0989
vn -0.0494 -0.9939 0.0989
vn -0.0990 -0.9951 -0.0000
vn -0.0494 -0.9939 -0.0989
vn 0.8890 -0.4579 0.0008
vn 0.7107 -0.6776 0.1890
vn 0.7071 -0.6798 -0.1946
vn 0.8343 -0.5217 -0.1784
vn 0.8324 -0.5286 0.1662
vn 0.6359 -0.7718 0.0000
vn 0.4437 0.2489 0.8609
vn 0.4445 0.2465 -0.8612
vn -0.4507 -0.2399 -0.8598
vn -0.4512 -0.2389 0.8599
vn 0.8721 0.4894 0.0016
vn -0.4797 0.8774 -0.0008
vn -0.7390 0.6459 0.1915
vn -0.7390 0.6459 -0.1915
vn -0.5709 0.7958 -0.2021
vn -0.5713 0.7954 0.2025
vn -0.8169 0.5768 0.0000
vn 0.4424 0.2454 0.8626
vn 0.4408 0.2445 -0.8637
vn -0.4451 -0.2370 -0.8636
vn -0.4451 -0.2370 0.8636
vn 0.8721 0.4894 0.0014
vn -0.4368 -0.2325 0.8690
vn -0.4368 -0.2325 -0.8690
vn 0.4352 0.2414 -0.8673
vn 0.4352 0.2414 0.8674
vn 0.0004 1.0000 0.0000
vn -0.2501 0.9540 0.1656
vn -0.2501 0.9540 -0.1656
vn -0.0783 0.9847 -0.1560
vn -0.0783 0.9847 0.1560
vn -0.3447 0.9387 0.0000
vn 0.8712 0.4908 0.0008
vn -0.4399 -0.2342 0.8670
vn -0.4399 -0.2342 -0.8670
vn 0.4373 0.2425 -0.8660
vn 0.4374 0.2460 0.8650
vn 0.4834 -0.8754 0.0008
vn 0.2082 -0.9643 0.1637
vn 0.2082 -0.9643 -0.1637
vn 0.3881 -0.9058 -0.1697
vn 0.3890 -0.9056 0.1692
vn 0.1230 -0.9924 0.0000
vn -0.3333 -0.6300 -0.7014
vn -0.8464 -0.5325 0.0000
vn -0.3333 -0.6300 0.7014
vn 0.4693 -0.8830 0.0000
usemtl Material.001
s 1
f 1/1/1 2/2/1 3/3/1 4/4/1
f 4/4/2 3/3/2 5/5/2 6/6/2
f 6/7/3 5/8/3 7/9/3 8/10/3
f 8/10/4 7/9/4 9/11/4 10/12/4
f 11/13/5 9/14/5 12/15/5 13/16/5
f 10/12/6 9/11/6 11/17/6 14/18/6
f 14/18/7 11/17/7 2/2/7 1/1/7
f 15/19/8 16/20/8 17/21/8 18/22/8
f 19/23/9 20/24/9 21/25/9 22/26/9
f 23/27/5 24/28/5 20/24/5 19/23/5
f 25/29/10 26/30/10 24/28/10 23/27/10
f 27/31/11 28/32/11 26/30/11 25/29/11
f 29/33/12 30/34/12 28/35/12 27/36/12
f 22/26/13 21/25/13 30/34/13 29/33/13
f 15/19/13 31/37/13 32/38/13 33/39/13
f 33/39/12 32/38/12 34/40/12 35/41/12
f 35/41/11 34/42/11 36/43/11 16/20/11
f 16/20/10 36/43/10 37/44/10 17/21/10
f 17/21/5 37/44/5 38/45/5 18/22/5
f 18/22/9 38/45/9 31/37/9 15/19/9
f 31/37/14 39/46/14 40/47/14 32/38/14
f 32/38/15 40/47/15 41/48/15 34/40/15
f 34/42/16 41/49/16 42/50/16 36/43/16
f 36/43/17 42/50/17 43/51/17 37/44/17
f 37/44/18 43/51/18 44/52/18 38/45/18
f 38/45/19 44/52/19 39/46/19 31/37/19
f 45/53/20 46/54/20 47/55/20 48/56/20
f 3/57/13 2/58/13 49/59/13 50/60/13
f 7/61/11 5/62/11 51/63/11 52/64/11
f 2/58/9 11/13/9 13/16/9 49/59/9
f 9/14/10 7/61/10 52/64/10 12/15/10
f 5/65/12 3/57/12 50/60/12 51/66/12
f 53/67/21 54/68/21 55/69/21 56/70/21
f 57/71/22 58/72/22 59/73/22 60/74/22
f 61/75/23 62/76/23 63/77/23 64/78/23
f 62/76/24 45/53/24 48/56/24 63/77/24
f 46/54/25 57/71/25 60/74/25 47/55/25
f 58/79/26 61/75/26 64/78/26 59/80/26
f 65/81/27 66/82/27 67/83/27 68/84/27
f 69/85/28 70/86/28 65/81/28 68/84/28
f 64/78/29 63/77/29 71/87/29 70/86/29
f 72/88/30 69/89/30 68/84/30 67/83/30
f 70/86/29 71/87/29 66/82/31 65/81/31
f 47/55/27 60/74/27 63/77/27 48/56/27
f 60/74/30 59/73/30 69/89/30 72/88/30
f 59/80/28 64/78/28 70/86/28 69/85/28
f 66/82/32 71/87/32 73/90/32 74/91/32
f 75/92/21 74/91/21 73/90/21 76/93/21
f 67/83/27 66/82/27 74/91/27 75/92/27
f 71/87/33 72/88/33 76/93/33 73/90/33
f 72/88/34 67/83/34 75/92/34 76/93/34
f 20/24/35 14/18/35 1/1/35 21/25/35
f 24/28/36 10/12/36 14/18/36 20/24/36
f 26/30/37 8/10/37 10/12/37 24/28/37
f 28/32/38 6/7/38 8/10/38 26/30/38
f 30/34/39 4/4/39 6/6/39 28/35/39
f 21/25/40 1/1/40 4/4/40 30/34/40
f 77/94/41 22/26/41 29/33/41 78/95/41
f 78/95/42 29/33/42 27/36/42 79/96/42
f 79/97/43 27/31/43 25/29/43 80/98/43
f 80/98/44 25/29/44 23/27/44 81/99/44
f 81/99/45 23/27/45 19/23/45 82/100/45
f 82/100/46 19/23/46 22/26/46 77/94/46
f 83/101/9 82/102/9 77/103/9 84/104/9
f 85/105/5 81/106/5 82/102/5 83/101/5
f 86/107/10 80/108/10 81/106/10 85/105/10
f 87/109/11 79/110/11 80/108/11 86/107/11
f 88/111/12 78/112/12 79/113/12 87/114/12
f 84/104/13 77/103/13 78/112/13 88/111/13
f 89/115/47 84/116/47 88/117/47 90/118/47
f 90/118/48 88/117/48 87/119/48 91/120/48
f 91/121/49 87/122/49 86/123/49 92/124/49
f 92/124/50 86/123/50 85/125/50 93/126/50
f 93/126/51 85/125/51 83/127/51 94/128/51
f 94/128/52 83/127/52 84/116/52 89/115/52
f 95/129/9 94/128/9 89/115/9 96/130/9
f 97/131/5 93/126/5 94/128/5 95/129/5
f 98/132/10 92/124/10 93/126/10 97/131/10
f 99/133/11 91/121/11 92/124/11 98/132/11
f 100/134/12 90/118/12 91/120/12 99/135/12
f 96/130/13 89/115/13 90/118/13 100/134/13
f 101/136/53 102/137/53 103/138/53 104/139/53
f 104/139/54 103/138/54 105/140/54 106/141/54
f 106/142/55 105/143/55 107/144/55 108/145/55
f 108/145/56 107/144/56 109/146/56 110/147/56
f 110/147/57 109/146/57 111/148/57 112/149/57
f 112/149/58 111/148/58 102/137/58 101/136/58
f 44/52/9 112/149/9 101/136/9 39/46/9
f 43/51/5 110/147/5 112/149/5 44/52/5
f 42/50/10 108/145/10 110/147/10 43/51/10
f 41/49/11 106/142/11 108/145/11 42/50/11
f 40/47/12 104/139/12 106/141/12 41/48/12
f 39/46/13 101/136/13 104/139/13 40/47/13
f 102/150/13 113/151/13 114/152/13 103/153/13
f 103/153/12 114/152/12 115/154/12 105/155/12
f 105/156/11 115/157/11 116/158/11 107/159/11
f 107/159/10 116/158/10 117/160/10 109/161/10
f 109/161/5 117/160/5 118/162/5 111/163/5
f 111/163/9 118/162/9 113/151/9 102/150/9
f 113/164/59 96/130/59 100/134/59 114/165/59
f 114/165/60 100/134/60 99/135/60 115/166/60
f 115/167/61 99/133/61 98/132/61 116/168/61
f 116/168/62 98/132/62 97/131/62 117/169/62
f 117/169/63 97/131/63 95/129/63 118/170/63
f 118/170/64 95/129/64 96/130/64 113/164/64
f 119/171/65 120/172/65 61/75/65 58/79/65
f 121/173/66 122/174/66 57/71/66 46/54/66
f 123/175/67 124/176/67 45/53/67 62/76/67
f 120/172/68 123/175/68 62/76/68 61/75/68
f 122/174/69 119/177/69 58/72/69 57/71/69
f 124/176/70 121/173/70 46/54/70 45/53/70
f 125/178/20 126/179/20 121/180/20 124/181/20
f 127/182/71 128/183/71 119/184/71 122/185/71
f 129/186/72 130/187/72 123/188/72 120/189/72
f 130/187/73 125/178/73 124/181/73 123/188/73
f 126/179/74 127/182/74 122/185/74 121/180/74
f 128/190/75 129/186/75 120/189/75 119/191/75
f 131/192/76 132/193/76 129/194/76 128/195/76
f 133/196/77 134/197/77 127/198/77 126/199/77
f 135/200/78 136/201/78 125/202/78 130/203/78
f 132/193/79 135/200/79 130/203/79 129/194/79
f 134/197/80 131/204/80 128/205/80 127/198/80
f 136/201/81 133/196/81 126/199/81 125/202/81
f 137/206/20 138/207/20 133/196/20 136/201/20
f 139/208/82 140/209/82 131/204/82 134/197/82
f 141/210/83 142/211/83 135/200/83 132/193/83
f 142/211/84 137/206/84 136/201/84 135/200/84
f 138/207/85 139/208/85 134/197/85 133/196/85
f 140/212/86 141/210/86 132/193/86 131/192/86
f 51/213/26 50/214/26 143/215/26 144/216/26
f 12/217/87 52/218/87 145/219/87 146/220/87
f 49/221/88 13/222/88 147/223/88 148/224/88
f 50/214/89 49/221/89 148/224/89 143/215/89
f 52/218/90 51/225/90 144/226/90 145/219/90
f 13/222/20 12/217/20 146/220/20 147/223/20
f 144/216/91 143/215/91 149/227/91 150/228/91
f 146/220/92 145/219/92 151/229/92 152/230/92
f 148/224/93 147/223/93 153/231/93 154/232/93
f 143/215/94 148/224/94 154/232/94 149/227/94
f 145/219/95 144/226/95 150/233/95 151/229/95
f 147/223/96 146/220/96 152/230/96 153/231/96
f 150/234/97 149/235/97 155/236/97 156/237/97
f 152/238/98 151/239/98 157/240/98 158/241/98
f 154/242/99 153/243/99 159/244/99 160/245/99
f 149/235/100 154/242/100 160/245/100 155/236/100
f 151/239/101 150/246/101 156/247/101 157/240/101
f 153/243/20 152/238/20 158/241/20 159/244/20
f 156/248/102 155/249/102 141/210/102 140/212/102
f 158/250/103 157/251/103 139/208/103 138/207/103
f 160/252/104 159/253/104 137/206/104 142/211/104
f 155/249/105 160/252/105 142/211/105 141/210/105
f 157/251/106 156/254/106 140/209/106 139/208/106
f 159/253/107 158/250/107 138/207/107 137/206/107
f 53/255/108 56/256/108 60/74/108 72/88/108
f 56/256/109 55/257/109 63/77/109 60/74/109
f 55/257/110 54/258/110 71/87/110 63/77/110
f 54/258/111 53/255/111 72/88/111 71/87/111
f 16/20/8 15/19/8 33/39/8 35/41/8
