# Blender v2.79 (sub 0) OBJ File: ''
# www.blender.org
mtllib RIP.mtl
o Cube_Cube.001
v -0.100000 0.000000 0.750000
v -0.100000 0.000000 -0.750000
v 0.100000 0.000000 0.750000
v 0.100000 0.000000 -0.750000
v -0.100000 0.000000 0.000000
v 0.100000 0.000000 0.000000
v -0.100000 1.176528 0.750000
v -0.100000 1.766333 0.448037
v -0.100000 1.317830 0.735221
v -0.100000 1.460717 0.692330
v -0.100000 1.591200 0.625526
v -0.100000 1.696509 0.541349
v -0.100000 1.766333 -0.448037
v -0.100000 1.176528 -0.750000
v -0.100000 1.696509 -0.541349
v -0.100000 1.591200 -0.625526
v -0.100000 1.460717 -0.692330
v -0.100000 1.317830 -0.735221
v 0.100000 1.766333 0.448037
v 0.100000 1.176528 0.750000
v 0.100000 1.696509 0.541349
v 0.100000 1.591200 0.625526
v 0.100000 1.460717 0.692330
v 0.100000 1.317830 0.735221
v 0.100000 1.176528 -0.750000
v 0.100000 1.766333 -0.448037
v 0.100000 1.317830 -0.735221
v 0.100000 1.460717 -0.692330
v 0.100000 1.591200 -0.625526
v 0.100000 1.696509 -0.541349
v -0.100000 1.842516 0.301963
v -0.100000 1.842516 -0.301963
v -0.100000 1.567679 0.000000
v -0.100000 1.883473 0.193872
v -0.100000 1.905006 0.066804
v -0.100000 1.905006 -0.066804
v -0.100000 1.883473 -0.193872
v 0.100000 1.842516 -0.301963
v 0.100000 1.842516 0.301963
v 0.100000 1.567679 0.000000
v 0.100000 1.883473 -0.193872
v 0.100000 1.905006 -0.066804
v 0.100000 1.905006 0.066804
v 0.100000 1.883473 0.193872
vt 0.562340 0.623761
vt 0.562340 0.415783
vt 0.915887 0.415783
vt 0.915887 0.623761
vt 0.538740 0.912065
vt 0.528631 0.886807
vt 0.701920 0.930973
vt 0.865100 0.912065
vt 0.875210 0.886807
vt 0.650474 0.789228
vt 0.650386 0.852547
vt 0.623661 0.852544
vt 0.623749 0.789225
vt 0.008063 0.010105
vt 0.361609 0.010105
vt 0.361609 0.186878
vt 0.008063 0.186878
vt 0.781907 0.789239
vt 0.781819 0.852558
vt 0.755093 0.852555
vt 0.755181 0.789237
vt 0.864330 0.724918
vt 0.874439 0.750177
vt 0.701150 0.706010
vt 0.715155 0.186878
vt 0.361609 0.186878
vt 0.715155 0.010105
vt 0.915887 0.207804
vt 0.915887 0.415783
vt 0.562340 0.415783
vt 0.562340 0.207804
vt 0.629978 0.657426
vt 0.655455 0.650186
vt 0.685404 0.646380
vt 0.716895 0.646380
vt 0.746845 0.650186
vt 0.772322 0.657426
vt 0.773092 0.979557
vt 0.747615 0.986797
vt 0.717666 0.990604
vt 0.686175 0.990604
vt 0.656225 0.986797
vt 0.630748 0.979557
vt 0.800139 0.789241
vt 0.800050 0.852559
vt 0.819806 0.789242
vt 0.819718 0.852561
vt 0.839995 0.789244
vt 0.839907 0.852563
vt 0.859663 0.789246
vt 0.859574 0.852564
vt 0.877894 0.789247
vt 0.877806 0.852566
vt 0.605429 0.852543
vt 0.605517 0.789224
vt 0.585761 0.852541
vt 0.585849 0.789222
vt 0.565572 0.852539
vt 0.565661 0.789221
vt 0.545905 0.852538
vt 0.545993 0.789219
vt 0.527673 0.852536
vt 0.527761 0.789217
vt 0.669620 0.789229
vt 0.669532 0.852548
vt 0.691445 0.789231
vt 0.691357 0.852550
vt 0.714210 0.789233
vt 0.714122 0.852552
vt 0.736035 0.789235
vt 0.735947 0.852554
vt 0.537970 0.724918
vt 0.527860 0.750177
vt 0.878693 0.861828
vt 0.849355 0.935131
vt 0.829515 0.953747
vt 0.807521 0.966090
vt 0.596319 0.966090
vt 0.368951 0.710200
vt 0.192177 0.779345
vt 0.192178 0.502222
vt 0.368951 0.502222
vt 0.574326 0.953747
vt 0.554485 0.935131
vt 0.525147 0.861828
vt 0.015405 0.293742
vt 0.192178 0.224597
vt 0.192178 0.501720
vt 0.015405 0.501720
vt 0.806751 0.670893
vt 0.828744 0.683236
vt 0.848585 0.701852
vt 0.877923 0.775155
vt 0.015405 0.710200
vt 0.015405 0.502222
vt 0.524377 0.775155
vt 0.553715 0.701852
vt 0.573555 0.683236
vt 0.595549 0.670893
vt 0.368951 0.293742
vt 0.368951 0.501720
vn 0.0000 0.0000 -1.0000
vn 1.0000 0.0000 0.0000
vn 0.0000 0.8867 0.4624
vn 0.0000 -1.0000 0.0000
vn 0.0000 0.8867 -0.4624
vn -1.0000 -0.0000 0.0000
vn 0.0000 0.0000 1.0000
vn 0.0000 0.8007 -0.5991
vn 0.0000 0.6244 -0.7811
vn 0.0000 0.4557 -0.8901
vn 0.0000 0.2875 -0.9578
vn 0.0000 0.1040 -0.9946
vn -0.0000 0.8007 0.5991
vn 0.0000 0.6244 0.7811
vn 0.0000 0.4557 0.8901
vn 0.0000 0.2875 0.9578
vn 0.0000 0.1040 0.9946
vn 0.0000 0.9351 0.3543
vn -0.0000 0.9859 0.1671
vn 0.0000 1.0000 0.0000
vn 0.0000 0.9859 -0.1671
vn 0.0000 0.9351 -0.3543
usemtl RIP
s off
f 2/1/1 14/2/1 25/3/1 4/4/1
f 23/5/2 24/6/2 40/7/2
f 28/8/2 40/7/2 27/9/2
f 39/10/3 31/11/3 8/12/3 19/13/3
f 5/14/4 6/15/4 3/16/4 1/17/4
f 26/18/5 13/19/5 32/20/5 38/21/5
f 17/22/6 18/23/6 33/24/6
f 2/25/4 4/26/4 6/15/4 5/27/4
f 3/28/7 20/29/7 7/30/7 1/31/7
f 31/32/6 34/33/6 33/24/6
f 34/33/6 35/34/6 33/24/6
f 35/34/6 36/35/6 33/24/6
f 36/35/6 37/36/6 33/24/6
f 37/36/6 32/37/6 33/24/6
f 38/38/2 41/39/2 40/7/2
f 41/39/2 42/40/2 40/7/2
f 42/40/2 43/41/2 40/7/2
f 43/41/2 44/42/2 40/7/2
f 44/42/2 39/43/2 40/7/2
f 13/19/8 26/18/8 30/44/8 15/45/8
f 15/45/9 30/44/9 29/46/9 16/47/9
f 16/47/10 29/46/10 28/48/10 17/49/10
f 17/49/11 28/48/11 27/50/11 18/51/11
f 18/51/12 27/50/12 25/52/12 14/53/12
f 19/13/13 8/12/13 12/54/13 21/55/13
f 21/55/14 12/54/14 11/56/14 22/57/14
f 22/57/15 11/56/15 10/58/15 23/59/15
f 23/59/16 10/58/16 9/60/16 24/61/16
f 24/61/17 9/60/17 7/62/17 20/63/17
f 31/11/18 39/10/18 44/64/18 34/65/18
f 34/65/19 44/64/19 43/66/19 35/67/19
f 35/67/20 43/66/20 42/68/20 36/69/20
f 36/69/21 42/68/21 41/70/21 37/71/21
f 37/71/22 41/70/22 38/21/22 32/20/22
f 10/72/6 33/24/6 9/73/6
f 25/74/2 27/9/2 40/7/2
f 28/8/2 29/75/2 40/7/2
f 30/76/2 26/77/2 40/7/2
f 38/38/2 40/7/2 26/77/2
f 40/7/2 39/43/2 19/78/2
f 29/75/2 30/76/2 40/7/2
f 25/79/2 40/80/2 6/81/2 4/82/2
f 19/78/2 21/83/2 40/7/2
f 22/84/2 23/5/2 40/7/2
f 24/6/2 20/85/2 40/7/2
f 21/83/2 22/84/2 40/7/2
f 7/86/6 33/87/6 5/88/6 1/89/6
f 33/24/6 32/37/6 13/90/6
f 13/90/6 15/91/6 33/24/6
f 16/92/6 17/22/6 33/24/6
f 18/23/6 14/93/6 33/24/6
f 15/91/6 16/92/6 33/24/6
f 6/81/2 40/80/2 20/94/2 3/95/2
f 7/96/6 9/73/6 33/24/6
f 10/72/6 11/97/6 33/24/6
f 12/98/6 8/99/6 33/24/6
f 31/32/6 33/24/6 8/99/6
f 11/97/6 12/98/6 33/24/6
f 5/88/6 33/87/6 14/100/6 2/101/6
