# Blender v2.79 (sub 0) OBJ File: ''
# www.blender.org
mtllib sideSign.mtl
o Cube.003_Cube.002
v 5.631822 10.739300 2.272570
v 5.631822 3.789073 2.272571
v 5.631822 10.739303 -2.882056
v 5.631822 3.789076 -2.882055
v 5.543061 10.739299 -2.882056
v 5.543061 3.789073 -2.882055
v 5.543061 10.739304 2.272570
v 5.543061 3.789076 2.272571
vt 0.160405 0.952466
vt 0.160405 0.031414
vt 0.843502 0.031414
vt 0.843502 0.952466
vt 0.155488 0.956462
vt 0.155488 0.027418
vt 0.844512 0.027419
vt 0.844512 0.956462
vt 0.155488 0.956462
vt 0.155488 0.027418
vt 0.844512 0.956462
vt 0.844512 0.027419
vn 1.0000 0.0000 0.0000
vn -1.0000 0.0000 0.0000
vn 0.0000 0.0000 1.0000
vn 0.0000 1.0000 -0.0000
vn 0.0000 -0.0000 -1.0000
vn 0.0000 -1.0000 0.0000
usemtl Store_Glass/Doors
s off
f 1/1/1 2/2/1 4/3/1 3/4/1
f 5/5/2 6/6/2 8/7/2 7/8/2
f 1/9/3 7/8/3 8/7/3 2/10/3
f 3/11/4 5/5/4 7/8/4 1/9/4
f 4/12/5 6/6/5 5/5/5 3/11/5
f 2/10/6 8/7/6 6/6/6 4/12/6
