# Blender v2.79 (sub 0) OBJ File: 'bullet.blend'
# www.blender.org
mtllib bullet.mtl
o Sphere
v 0.000000 0.690983 -0.951056
v 0.000000 0.190983 -0.587785
v 0.181636 1.951056 -0.250000
v 0.345492 1.809017 -0.475528
v 0.475528 1.587785 -0.654508
v 0.559017 1.309017 -0.769421
v 0.587785 1.000000 -0.809017
v 0.559017 0.690983 -0.769421
v 0.475528 0.412215 -0.654508
v 0.345492 0.190983 -0.475528
v 0.181636 0.048943 -0.250000
v 0.293893 1.951056 -0.095491
v 0.559017 1.809017 -0.181635
v 0.769421 1.587785 -0.250000
v 0.904509 1.309017 -0.293892
v 0.951057 1.000000 -0.309017
v 0.904509 0.690983 -0.293892
v 0.769421 0.412215 -0.250000
v 0.559017 0.190983 -0.181635
v 0.293893 0.048943 -0.095491
v 0.293893 1.951056 0.095492
v 0.559017 1.809017 0.181636
v 0.769421 1.587785 0.250000
v 0.904509 1.309017 0.293893
v 0.951057 1.000000 0.309017
v 0.904509 0.690983 0.293893
v 0.769421 0.412215 0.250000
v 0.559017 0.190983 0.181636
v 0.293893 0.048943 0.095492
v 0.181636 1.951056 0.250001
v 0.345492 1.809017 0.475529
v 0.475528 1.587785 0.654509
v 0.559017 1.309017 0.769421
v 0.587785 1.000000 0.809017
v 0.559017 0.690983 0.769421
v 0.475528 0.412215 0.654509
v 0.345492 0.190983 0.475529
v 0.181636 0.048943 0.250000
v 0.000000 1.951056 0.309018
v 0.000000 1.809017 0.587786
v -0.000000 1.587785 0.809018
v 0.000000 1.309017 0.951057
v 0.000000 1.000000 1.000001
v -0.000000 0.690983 0.951057
v -0.000000 0.412215 0.809018
v 0.000000 0.190983 0.587786
v 0.000000 0.048943 0.309017
v -0.000000 2.000000 0.000001
v -0.181636 1.951056 0.250001
v -0.345492 1.809017 0.475529
v -0.475529 1.587785 0.654509
v -0.559017 1.309017 0.769422
v -0.587785 1.000000 0.809018
v -0.559017 0.690983 0.769421
v -0.475529 0.412215 0.654509
v -0.345492 0.190983 0.475529
v -0.181636 0.048943 0.250000
v -0.293893 1.951056 0.095492
v -0.559017 1.809017 0.181636
v -0.769421 1.587785 0.250000
v -0.904509 1.309017 0.293893
v -0.951057 1.000000 0.309018
v -0.904509 0.690983 0.293893
v -0.769421 0.412215 0.250000
v -0.559017 0.190983 0.181636
v -0.293893 0.048943 0.095492
v -0.293893 1.951056 -0.095491
v -0.559017 1.809017 -0.181635
v -0.769421 1.587785 -0.250000
v -0.904509 1.309017 -0.293892
v -0.951057 1.000000 -0.309017
v -0.904509 0.690983 -0.293892
v -0.769421 0.412215 -0.250000
v -0.559017 0.190983 -0.181635
v -0.293893 0.048943 -0.095491
v -0.181636 1.951056 -0.250000
v -0.345492 1.809017 -0.475528
v -0.475529 1.587785 -0.654509
v -0.559017 1.309017 -0.769421
v -0.587786 1.000000 -0.809017
v -0.559017 0.690983 -0.769421
v -0.475529 0.412215 -0.654509
v -0.345492 0.190983 -0.475528
v -0.181636 0.048943 -0.250000
v -0.000000 1.951056 -0.309017
v -0.000000 1.809017 -0.587785
v -0.000000 1.587785 -0.809017
v -0.000000 1.309017 -0.951057
v -0.000000 1.000000 -1.000000
v -0.000000 0.412215 -0.809017
v -0.000000 0.048943 -0.309017
v 0.000000 0.000000 0.000000
vt 0.356634 0.441216
vt 0.320351 0.406013
vt 0.386522 0.371127
vt 0.400801 0.394942
vt 0.300033 0.303936
vt 0.323376 0.251222
vt 0.387840 0.287400
vt 0.379436 0.316515
vt 0.438134 0.200121
vt 0.497088 0.232578
vt 0.442114 0.236046
vt 0.403206 0.458969
vt 0.422762 0.414912
vt 0.300033 0.358182
vt 0.379336 0.344701
vt 0.371165 0.210988
vt 0.407046 0.258850
vt 0.452834 0.456334
vt 0.454377 0.428660
vt 0.502335 0.434158
vt 0.427074 0.301640
vt 0.423451 0.321014
vt 0.454211 0.256833
vt 0.433335 0.374470
vt 0.444837 0.392058
vt 0.423398 0.339293
vt 0.435758 0.280430
vt 0.464411 0.410182
vt 0.426580 0.356991
vt 0.477074 0.398904
vt 0.455427 0.350151
vt 0.458939 0.364229
vt 0.455176 0.307909
vt 0.453679 0.322744
vt 0.468067 0.268523
vt 0.465251 0.379756
vt 0.453785 0.336558
vt 0.459003 0.290757
vt 0.478019 0.334791
vt 0.478955 0.346498
vt 0.479001 0.295246
vt 0.477979 0.310289
vt 0.490405 0.392797
vt 0.480780 0.358934
vt 0.477718 0.323005
vt 0.481975 0.274387
vt 0.484067 0.373331
vt 0.495633 0.276012
vt 0.497404 0.295952
vt 0.502145 0.370777
vt 0.503896 0.390720
vt 0.499770 0.333365
vt 0.500328 0.344540
vt 0.498504 0.310170
vt 0.501050 0.356559
vt 0.499223 0.322188
vt 0.520610 0.320223
vt 0.521547 0.331936
vt 0.509122 0.273914
vt 0.515484 0.293381
vt 0.520555 0.371499
vt 0.517558 0.392366
vt 0.521849 0.343727
vt 0.518781 0.307782
vt 0.521585 0.356449
vt 0.522452 0.267782
vt 0.544410 0.358843
vt 0.540568 0.376011
vt 0.544162 0.316559
vt 0.545808 0.330166
vt 0.534309 0.286932
vt 0.531469 0.398256
vt 0.545913 0.343994
vt 0.540640 0.302469
vt 0.576188 0.345734
vt 0.572551 0.365137
vt 0.566276 0.292196
vt 0.573051 0.309699
vt 0.535109 0.256471
vt 0.563837 0.386374
vt 0.576243 0.327425
vt 0.554738 0.274592
vt 0.545326 0.409984
vt 0.576828 0.251667
vt 0.598863 0.271657
vt 0.557407 0.430830
vt 0.620298 0.350257
vt 0.611858 0.379434
vt 0.613193 0.295518
vt 0.545123 0.237945
vt 0.592580 0.408029
vt 0.620403 0.322004
vt 0.699967 0.308491
vt 0.699933 0.362924
vt 0.596372 0.207463
vt 0.643119 0.225207
vt 0.561319 0.466841
vt 0.676463 0.415782
vt 0.679558 0.260498
vt 0.546606 0.210212
vt 0.628481 0.456067
vn 0.2781 -0.4361 -0.8559
vn 0.2781 0.4361 -0.8559
vn 0.0508 0.9864 -0.1562
vn 0.2239 -0.6892 -0.6892
vn 0.3056 0.1490 -0.9404
vn 0.1459 0.8815 -0.4491
vn 0.1459 -0.8815 -0.4491
vn 0.3056 -0.1490 -0.9404
vn 0.2239 0.6892 -0.6892
vn 0.0508 -0.9864 -0.1562
vn 0.7280 0.4361 -0.5290
vn 0.1329 0.9864 -0.0966
vn 0.5862 -0.6892 -0.4259
vn 0.8000 0.1490 -0.5812
vn 0.3821 0.8815 -0.2776
vn 0.3821 -0.8815 -0.2776
vn 0.8000 -0.1490 -0.5812
vn 0.5862 0.6892 -0.4259
vn 0.1329 -0.9864 -0.0966
vn 0.7280 -0.4361 -0.5290
vn 0.1643 -0.9864 0.0000
vn 0.8999 -0.4361 0.0000
vn 0.8999 0.4361 0.0000
vn 0.1643 0.9864 0.0000
vn 0.7246 -0.6892 0.0000
vn 0.9888 0.1490 0.0000
vn 0.4722 0.8815 0.0000
vn 0.4722 -0.8815 0.0000
vn 0.9888 -0.1490 0.0000
vn 0.7246 0.6892 0.0000
vn 0.8000 -0.1490 0.5812
vn 0.5862 0.6892 0.4259
vn 0.1329 -0.9864 0.0966
vn 0.7280 -0.4361 0.5290
vn 0.7280 0.4361 0.5290
vn 0.1329 0.9864 0.0966
vn 0.5862 -0.6892 0.4259
vn 0.8000 0.1490 0.5812
vn 0.3821 0.8815 0.2776
vn 0.3821 -0.8815 0.2776
vn 0.1459 0.8815 0.4491
vn 0.1459 -0.8815 0.4491
vn 0.3056 -0.1490 0.9404
vn 0.2239 0.6892 0.6892
vn 0.0508 -0.9864 0.1562
vn 0.2781 -0.4361 0.8559
vn 0.2781 0.4361 0.8559
vn 0.0508 0.9864 0.1562
vn 0.2239 -0.6892 0.6892
vn 0.3056 0.1490 0.9404
vn -0.3056 0.1490 0.9404
vn -0.1459 0.8815 0.4491
vn -0.1459 -0.8815 0.4491
vn -0.3056 -0.1490 0.9404
vn -0.2239 0.6892 0.6892
vn -0.0508 -0.9864 0.1562
vn -0.2781 -0.4361 0.8559
vn -0.2781 0.4361 0.8559
vn -0.0508 0.9864 0.1562
vn -0.2239 -0.6892 0.6892
vn -0.1329 0.9864 0.0966
vn -0.5862 -0.6892 0.4259
vn -0.8000 0.1490 0.5812
vn -0.3821 0.8815 0.2776
vn -0.3821 -0.8815 0.2776
vn -0.8000 -0.1490 0.5812
vn -0.5862 0.6892 0.4259
vn -0.1329 -0.9864 0.0966
vn -0.7280 -0.4361 0.5290
vn -0.7280 0.4361 0.5290
vn -0.8999 -0.4361 0.0000
vn -0.8999 0.4361 0.0000
vn -0.1643 0.9864 0.0000
vn -0.7246 -0.6892 0.0000
vn -0.9888 0.1490 0.0000
vn -0.4722 0.8815 0.0000
vn -0.4722 -0.8815 0.0000
vn -0.9888 -0.1490 0.0000
vn -0.7246 0.6892 0.0000
vn -0.1643 -0.9864 0.0000
vn -0.5862 0.6892 -0.4259
vn -0.1329 -0.9864 -0.0966
vn -0.7280 -0.4361 -0.5290
vn -0.7280 0.4361 -0.5290
vn -0.1329 0.9864 -0.0966
vn -0.5862 -0.6892 -0.4259
vn -0.8000 0.1490 -0.5812
vn -0.3821 0.8815 -0.2776
vn -0.3821 -0.8815 -0.2776
vn -0.8000 -0.1490 -0.5812
vn -0.3056 -0.1490 -0.9404
vn -0.2239 0.6892 -0.6892
vn -0.0508 -0.9864 -0.1562
vn -0.2781 -0.4361 -0.8559
vn -0.2781 0.4361 -0.8559
vn -0.0508 0.9864 -0.1562
vn -0.2239 -0.6892 -0.6892
vn -0.3056 0.1490 -0.9404
vn -0.1459 0.8815 -0.4491
vn -0.1459 -0.8815 -0.4491
usemtl Material.001
s off
f 90/1/1 1/2/1 8/3/1 9/4/1
f 88/5/2 87/6/2 5/7/2 6/8/2
f 85/9/3 48/10/3 3/11/3
f 2/12/4 90/1/4 9/4/4 10/13/4
f 89/14/5 88/5/5 6/8/5 7/15/5
f 86/16/6 85/9/6 3/11/6 4/17/6
f 91/18/7 2/12/7 10/13/7 11/19/7
f 1/2/8 89/14/8 7/15/8 8/3/8
f 87/6/9 86/16/9 4/17/9 5/7/9
f 92/20/10 91/18/10 11/19/10
f 6/8/11 5/7/11 14/21/11 15/22/11
f 3/11/12 48/10/12 12/23/12
f 10/13/13 9/4/13 18/24/13 19/25/13
f 7/15/14 6/8/14 15/22/14 16/26/14
f 4/17/15 3/11/15 12/23/15 13/27/15
f 11/19/16 10/13/16 19/25/16 20/28/16
f 8/3/17 7/15/17 16/26/17 17/29/17
f 5/7/18 4/17/18 13/27/18 14/21/18
f 92/20/19 11/19/19 20/28/19
f 9/4/20 8/3/20 17/29/20 18/24/20
f 92/20/21 20/28/21 29/30/21
f 18/24/22 17/29/22 26/31/22 27/32/22
f 15/22/23 14/21/23 23/33/23 24/34/23
f 12/23/24 48/10/24 21/35/24
f 19/25/25 18/24/25 27/32/25 28/36/25
f 16/26/26 15/22/26 24/34/26 25/37/26
f 13/27/27 12/23/27 21/35/27 22/38/27
f 20/28/28 19/25/28 28/36/28 29/30/28
f 17/29/29 16/26/29 25/37/29 26/31/29
f 14/21/30 13/27/30 22/38/30 23/33/30
f 26/31/31 25/37/31 34/39/31 35/40/31
f 23/33/32 22/38/32 31/41/32 32/42/32
f 92/20/33 29/30/33 38/43/33
f 27/32/34 26/31/34 35/40/34 36/44/34
f 24/34/35 23/33/35 32/42/35 33/45/35
f 21/35/36 48/10/36 30/46/36
f 28/36/37 27/32/37 36/44/37 37/47/37
f 25/37/38 24/34/38 33/45/38 34/39/38
f 22/38/39 21/35/39 30/46/39 31/41/39
f 29/30/40 28/36/40 37/47/40 38/43/40
f 31/41/41 30/46/41 39/48/41 40/49/41
f 38/43/42 37/47/42 46/50/42 47/51/42
f 35/40/43 34/39/43 43/52/43 44/53/43
f 32/42/44 31/41/44 40/49/44 41/54/44
f 92/20/45 38/43/45 47/51/45
f 36/44/46 35/40/46 44/53/46 45/55/46
f 33/45/47 32/42/47 41/54/47 42/56/47
f 30/46/48 48/10/48 39/48/48
f 37/47/49 36/44/49 45/55/49 46/50/49
f 34/39/50 33/45/50 42/56/50 43/52/50
f 43/52/51 42/56/51 52/57/51 53/58/51
f 40/49/52 39/48/52 49/59/52 50/60/52
f 47/51/53 46/50/53 56/61/53 57/62/53
f 44/53/54 43/52/54 53/58/54 54/63/54
f 41/54/55 40/49/55 50/60/55 51/64/55
f 92/20/56 47/51/56 57/62/56
f 45/55/57 44/53/57 54/63/57 55/65/57
f 42/56/58 41/54/58 51/64/58 52/57/58
f 39/48/59 48/10/59 49/59/59
f 46/50/60 45/55/60 55/65/60 56/61/60
f 49/59/61 48/10/61 58/66/61
f 56/61/62 55/65/62 64/67/62 65/68/62
f 53/58/63 52/57/63 61/69/63 62/70/63
f 50/60/64 49/59/64 58/66/64 59/71/64
f 57/62/65 56/61/65 65/68/65 66/72/65
f 54/63/66 53/58/66 62/70/66 63/73/66
f 51/64/67 50/60/67 59/71/67 60/74/67
f 92/20/68 57/62/68 66/72/68
f 55/65/69 54/63/69 63/73/69 64/67/69
f 52/57/70 51/64/70 60/74/70 61/69/70
f 64/67/71 63/73/71 72/75/71 73/76/71
f 61/69/72 60/74/72 69/77/72 70/78/72
f 58/66/73 48/10/73 67/79/73
f 65/68/74 64/67/74 73/76/74 74/80/74
f 62/70/75 61/69/75 70/78/75 71/81/75
f 59/71/76 58/66/76 67/79/76 68/82/76
f 66/72/77 65/68/77 74/80/77 75/83/77
f 63/73/78 62/70/78 71/81/78 72/75/78
f 60/74/79 59/71/79 68/82/79 69/77/79
f 92/20/80 66/72/80 75/83/80
f 69/77/81 68/82/81 77/84/81 78/85/81
f 92/20/82 75/83/82 84/86/82
f 73/76/83 72/75/83 81/87/83 82/88/83
f 70/78/84 69/77/84 78/85/84 79/89/84
f 67/79/85 48/10/85 76/90/85
f 74/80/86 73/76/86 82/88/86 83/91/86
f 71/81/87 70/78/87 79/89/87 80/92/87
f 68/82/88 67/79/88 76/90/88 77/84/88
f 75/83/89 74/80/89 83/91/89 84/86/89
f 72/75/90 71/81/90 80/92/90 81/87/90
f 81/87/91 80/92/91 89/93/91 1/94/91
f 78/85/92 77/84/92 86/95/92 87/96/92
f 92/20/93 84/86/93 91/97/93
f 82/88/94 81/87/94 1/94/94 90/98/94
f 79/89/95 78/85/95 87/96/95 88/99/95
f 76/90/96 48/10/96 85/100/96
f 83/91/97 82/88/97 90/98/97 2/101/97
f 80/92/98 79/89/98 88/99/98 89/93/98
f 77/84/99 76/90/99 85/100/99 86/95/99
f 84/86/100 83/91/100 2/101/100 91/97/100
