# Blender v2.79 (sub 0) OBJ File: 'candyMissile.blend'
# www.blender.org
mtllib candyMissile.mtl
o Cube
v 0.592785 0.736164 -0.592784
v 0.592785 0.736164 0.592785
v -0.592785 0.736164 0.592784
v -0.592784 0.736164 -0.592785
v 0.592785 1.921733 -0.592784
v 0.592784 1.921733 0.592785
v -0.592785 1.921733 0.592784
v -0.592784 1.921733 -0.592785
v 0.691021 0.637927 -0.059178
v 0.691021 0.637927 0.072967
v -0.691021 0.637927 0.072966
v -0.691021 0.637927 -0.059178
v 0.691021 2.019970 -0.059177
v 0.691021 2.019970 0.072967
v -0.691021 2.019970 0.072966
v -0.691021 2.019970 -0.059178
vt 0.211970 0.360533
vt 0.236654 0.256039
vt 0.463853 0.273515
vt 0.460356 0.366094
vt 0.936904 0.375332
vt 0.687946 0.371448
vt 0.688006 0.274191
vt 0.918005 0.268690
vt 0.310023 0.718437
vt 0.310023 0.975836
vt 0.211495 0.957540
vt 0.211495 0.736733
vt 0.464529 0.049362
vt 0.688682 0.050038
vt 0.459849 0.389274
vt 0.687648 0.394617
vt 0.685190 0.491960
vt 0.458901 0.491960
vt 0.685190 0.718249
vt 0.458901 0.718249
vt 0.435686 0.736733
vt 0.435686 0.957540
vt 0.334634 0.975836
vt 0.334634 0.718437
vt 0.912080 0.503738
vt 0.936271 0.400878
vt 0.229971 0.490882
vt 0.211495 0.386024
vn -0.0000 -0.9826 0.1857
vn -0.0000 0.9826 0.1857
vn 0.9826 0.0000 0.1857
vn -0.0000 -0.0000 1.0000
vn -0.9835 -0.0000 -0.1811
vn 0.0000 0.0000 -1.0000
vn -0.9826 -0.0000 0.1857
vn -1.0000 -0.0000 -0.0000
vn 0.9835 -0.0000 -0.1811
vn 1.0000 0.0000 0.0000
vn 0.0000 0.9835 -0.1811
vn 0.0000 1.0000 0.0000
vn 0.0000 -0.9835 -0.1811
vn 0.0000 -1.0000 -0.0000
usemtl Material.003
s off
f 10/1/1 2/2/1 3/3/1 11/4/1
f 14/5/2 15/6/2 7/7/2 6/8/2
f 10/9/3 14/10/3 6/11/3 2/12/3
f 2/13/4 6/14/4 7/7/4 3/3/4
f 12/15/5 16/16/5 8/17/5 4/18/5
f 5/19/6 1/20/6 4/18/6 8/17/6
f 3/3/7 7/7/7 15/6/7 11/4/7
f 11/4/8 15/6/8 16/16/8 12/15/8
f 1/21/9 5/22/9 13/23/9 9/24/9
f 9/24/10 13/23/10 14/10/10 10/9/10
f 5/25/11 8/17/11 16/16/11 13/26/11
f 13/26/12 16/16/12 15/6/12 14/5/12
f 1/27/13 9/28/13 12/15/13 4/18/13
f 9/28/14 10/1/14 11/4/14 12/15/14
