# Blender v2.79 (sub 0) OBJ File: ''
# www.blender.org
mtllib Floor2.mtl
o Plane
v -15.000000 1.577358 20.000000
v 15.000000 1.577358 20.000000
v 15.000000 1.577365 -20.000000
v -15.000000 1.577365 -20.000000
v -15.000000 -2.401631 20.000000
v 15.000000 -2.401631 20.000000
v 15.000000 -2.401624 -20.000000
v -15.000000 -2.401624 -20.000000
vt 0.000100 0.000100
vt 0.000100 0.999900
vt 0.999900 0.999900
vt 0.999900 0.000100
vt 0.000100 0.000100
vt 0.000100 0.999900
vt 0.999900 0.999900
vt 0.999900 0.000100
vn 0.5774 -0.5774 -0.5774
vn 0.5774 -0.5774 0.5774
vn -0.5774 -0.5774 0.5774
vn -0.5774 -0.5774 -0.5774
vn 0.0000 -1.0000 -0.0000
vn 0.7071 0.0000 -0.7071
vn 0.7071 0.0000 0.7071
vn -0.7071 0.0000 0.7071
vn -0.7071 0.0000 -0.7071
usemtl Material.002
s 1
f 1/1/1 4/2/2 3/3/3 2/4/4
f 5/5/5 8/6/5 7/7/5 6/8/5
f 4/2/2 1/1/1 5/5/6 8/6/7
f 3/3/3 4/2/2 8/6/7 7/7/8
f 1/1/1 2/4/4 6/8/9 5/5/6
f 2/4/4 3/3/3 7/7/8 6/8/9
